<svg width="477" height="198" viewBox="0 0 477 198" fill="none" xmlns="http://www.w3.org/2000/svg">
<path d="M8 8L263 37.0145V162.014L8 190V8Z" stroke="#FFB300" stroke-width="15" stroke-linejoin="round"/>
<path d="M83.2695 89.5938C82.1914 82.4062 76.6211 78.0039 69.0742 78.0039C58.9219 78.0039 52.2734 85.8203 52.2734 99.4766C52.2734 113.492 59.0117 120.949 68.9844 120.949C76.4414 120.949 81.9219 116.816 83.2695 109.809L96.9258 109.898C95.3984 121.938 85.3359 132.898 68.8047 132.898C51.375 132.898 38.5273 120.68 38.5273 99.4766C38.5273 78.2734 51.6445 66.0547 68.8047 66.0547C83.8086 66.0547 95.1289 74.6797 96.9258 89.5938H83.2695ZM103.754 118.344C103.754 107.473 112.559 103.879 121.902 103.34C125.406 103.115 131.965 102.801 134.031 102.711V98.7578C133.941 94.7148 131.156 92.2891 126.215 92.2891C121.723 92.2891 118.848 94.3555 118.129 97.6797H105.461C106.27 89.2344 113.637 82.5859 126.574 82.5859C137.176 82.5859 147.238 87.3477 147.238 99.1172V132H134.66V125.262H134.301C131.875 129.754 127.293 132.898 120.016 132.898C110.672 132.898 103.754 128.047 103.754 118.344ZM116.512 117.984C116.512 121.758 119.566 123.734 123.789 123.734C129.809 123.734 134.121 119.691 134.031 114.57V110.977C132.01 111.066 126.35 111.381 124.059 111.605C119.477 112.055 116.512 114.211 116.512 117.984ZM157.391 132V83.2148H170.238V91.6602H170.777C172.574 85.6406 177.066 82.4961 182.547 82.4961C183.895 82.4961 185.602 82.6758 186.77 82.9453V94.8047C185.512 94.4453 182.996 94.0859 181.109 94.0859C175.09 94.0859 170.688 98.3086 170.688 104.238V132H157.391ZM209.68 132.809C198.539 132.809 189.824 123.914 189.824 107.652C189.824 90.9414 198.898 82.5859 209.68 82.5859C217.855 82.5859 221.719 87.4375 223.516 91.3906H223.965V66.9531H237.262V132H224.145V124.184H223.516C221.629 128.227 217.586 132.809 209.68 132.809ZM213.812 122.207C220.461 122.207 224.234 116.367 224.234 107.562C224.234 98.7578 220.461 93.1875 213.812 93.1875C207.074 93.1875 203.48 99.0273 203.48 107.562C203.48 116.188 207.074 122.207 213.812 122.207ZM290.359 132V83.2148H303.656V132H290.359ZM297.008 76.8359C292.965 76.8359 289.73 73.7812 289.73 70.0977C289.73 66.3242 292.965 63.2695 297.008 63.2695C300.961 63.2695 304.195 66.3242 304.195 70.0977C304.195 73.7812 300.961 76.8359 297.008 76.8359ZM327.285 103.789V132H313.988V83.2148H326.656V91.75H327.195C329.441 86.0898 334.652 82.5859 341.84 82.5859C351.992 82.5859 358.73 89.5039 358.641 100.914V132H345.434V103.25C345.434 97.2305 342.109 93.6367 336.629 93.6367C331.059 93.6367 327.285 97.3203 327.285 103.789ZM380.113 132H365.559L388.109 66.9531H405.449L427.91 132H413.445L408.594 116.996H385.055L380.113 132ZM388.469 106.484H405.18L397.004 81.5977H396.555L388.469 106.484ZM435.277 132V83.2148H448.574V132H435.277ZM441.926 76.8359C437.883 76.8359 434.648 73.7812 434.648 70.0977C434.648 66.3242 437.883 63.2695 441.926 63.2695C445.879 63.2695 449.113 66.3242 449.113 70.0977C449.113 73.7812 445.879 76.8359 441.926 76.8359Z" fill="white"/>
</svg>
